# xmcd
#
# Track frame offsets: 
#        150
#        15875
#        32395
#        45635
#        61912
#        77237
#        92755
#        111292
#        129932
#        147835
#        162665
#        180997
#        194980
#        211212
#
# Disc length: 3027 seconds
#
# Revision: 1
# Processed by: cddbd v1.5.2PL0 Copyright (c) Steve Scherf et al.
# Submitted via: ExactAudioCopy v1.0b1
#
DISCID=b70bd10e
DTITLE=Tara Lyn Hart - Tara Lyn Hart
DYEAR=1999
DGENRE=Country
TTITLE0=Stuff That Matters
TTITLE1=One Heart
TTITLE2=Save Me
TTITLE3=What He Used To Do
TTITLE4=Mine All Mine
TTITLE5=You Can Get There From Here
TTITLE6=That's When You Came Along
TTITLE7=Hearts And Arrows
TTITLE8=You Again
TTITLE9=Baby What About You
TTITLE10=A Rose Is A Rose
TTITLE11=Love Ought To Work That Way
TTITLE12=Greatest Story
TTITLE13=I Will Be Loving You
EXTD=
EXTT0=
EXTT1=
EXTT2=
EXTT3=
EXTT4=
EXTT5=
EXTT6=
EXTT7=
EXTT8=
EXTT9=
EXTT10=
EXTT11=
EXTT12=
EXTT13=
PLAYORDER=
